HIERARCHY
ROOT Hips
{
	OFFSET 0.000000 121.760803 0.000000
	CHANNELS 6 Xposition Yposition Zposition Xrotation Yrotation Zrotation 
	JOINT Spine
	{
		OFFSET 0.072000 7.257294 -0.789700
		CHANNELS 3 Xrotation Yrotation Zrotation
		JOINT Spine1
		{
			OFFSET 0.000000 12.508769 -0.658067
			CHANNELS 3 Xrotation Yrotation Zrotation
			JOINT Spine1_split
			{
				OFFSET 0.000000 12.508769 -0.658067
				CHANNELS 3 Xrotation Yrotation Zrotation
				JOINT Spine2
				{
					OFFSET 0.000000 12.508769 -0.658067
					CHANNELS 3 Xrotation Yrotation Zrotation
					JOINT Neck
					{
						OFFSET 0.000000 14.033295 7.520400
						CHANNELS 3 Xrotation Yrotation Zrotation
						JOINT Head
						{
							OFFSET 0.000000 8.198502 5.703100
							CHANNELS 3 Xrotation Yrotation Zrotation
							JOINT HeadTop_End
							{
								OFFSET 0.000000 17.760803 13.332701
								CHANNELS 3 Xrotation Yrotation Zrotation
								End Site
								{
									OFFSET 0.000000 0.000000 0.000000
								}
							}
						}
					}
					JOINT LeftShoulder
					{
						OFFSET 6.292450 5.785301 -0.669000
						CHANNELS 3 Xrotation Yrotation Zrotation
						JOINT LeftShoulder_split
						{
							OFFSET 6.292450 5.785301 -0.669000
							CHANNELS 3 Xrotation Yrotation Zrotation
							JOINT LeftArm
							{
								OFFSET 13.907140 -6.093903 1.965100
								CHANNELS 3 Xrotation Yrotation Zrotation
								JOINT LeftForeArm
								{
									OFFSET 34.140198 0.000000 0.000000
									CHANNELS 3 Xrotation Yrotation Zrotation
									JOINT LeftHand
									{
										OFFSET 40.960209 0.000000 0.000000
										CHANNELS 3 Xrotation Yrotation Zrotation
										JOINT LeftHandThumb1
										{
											OFFSET 10.006996 -7.170425 9.573125
											CHANNELS 3 Xrotation Yrotation Zrotation
											JOINT LeftHandThumb2
											{
												OFFSET 1.835007 -1.059448 1.059443
												CHANNELS 3 Xrotation Yrotation Zrotation
												JOINT LeftHandThumb3
												{
													OFFSET 2.112267 -1.219513 1.219518
													CHANNELS 3 Xrotation Yrotation Zrotation
													JOINT LeftHandThumb4
													{
														OFFSET 4.843811 -2.796570 2.796576
														CHANNELS 3 Xrotation Yrotation Zrotation
														End Site
														{
															OFFSET 0.000000 0.000000 0.000000
														}
													}
												}
											}
										}
										JOINT LeftHandIndex1
										{
											OFFSET 18.389847 -0.922348 4.596882
											CHANNELS 3 Xrotation Yrotation Zrotation
											JOINT LeftHandIndex2
											{
												OFFSET 4.711273 0.000000 0.000000
												CHANNELS 3 Xrotation Yrotation Zrotation
												JOINT LeftHandIndex3
												{
													OFFSET 2.886131 0.000000 0.000000
													CHANNELS 3 Xrotation Yrotation Zrotation
													JOINT LeftHandIndex4
													{
														OFFSET 6.145912 0.000000 0.000000
														CHANNELS 3 Xrotation Yrotation Zrotation
														End Site
														{
															OFFSET 0.000000 0.000000 0.000000
														}
													}
												}
											}
										}
										JOINT LeftHandMiddle1
										{
											OFFSET 18.013008 0.000000 0.000000
											CHANNELS 3 Xrotation Yrotation Zrotation
											JOINT LeftHandMiddle2
											{
												OFFSET 4.946693 0.000000 0.000000
												CHANNELS 3 Xrotation Yrotation Zrotation
												JOINT LeftHandMiddle3
												{
													OFFSET 3.342232 0.000000 0.000000
													CHANNELS 3 Xrotation Yrotation Zrotation
													JOINT LeftHandMiddle4
													{
														OFFSET 4.461754 0.000000 0.000000
														CHANNELS 3 Xrotation Yrotation Zrotation
														End Site
														{
															OFFSET 0.000000 0.000000 0.000000
														}
													}
												}
											}
										}
										JOINT LeftHandRing1
										{
											OFFSET 15.849892 -0.102921 -4.126150
											CHANNELS 3 Xrotation Yrotation Zrotation
											JOINT LeftHandRing2
											{
												OFFSET 3.527054 0.000000 0.000000
												CHANNELS 3 Xrotation Yrotation Zrotation
												JOINT LeftHandRing3
												{
													OFFSET 2.961098 0.000000 0.000000
													CHANNELS 3 Xrotation Yrotation Zrotation
													JOINT LeftHandRing4
													{
														OFFSET 4.927200 0.000000 0.000000
														CHANNELS 3 Xrotation Yrotation Zrotation
														End Site
														{
															OFFSET 0.000000 0.000000 0.000000
														}
													}
												}
											}
										}
										JOINT LeftHandPinky1
										{
											OFFSET 12.791824 -0.832031 -6.799156
											CHANNELS 3 Xrotation Yrotation Zrotation
											JOINT LeftHandPinky2
											{
												OFFSET 3.327133 0.000000 0.000000
												CHANNELS 3 Xrotation Yrotation Zrotation
												JOINT LeftHandPinky3
												{
													OFFSET 3.014900 0.000000 0.000000
													CHANNELS 3 Xrotation Yrotation Zrotation
													JOINT LeftHandPinky4
													{
														OFFSET 5.847786 0.000000 0.000000
														CHANNELS 3 Xrotation Yrotation Zrotation
														End Site
														{
															OFFSET 0.000000 0.000000 0.000000
														}
													}
												}
											}
										}
									}
								}
							}
						}
					}
					JOINT RightShoulder
					{
						OFFSET -6.292450 5.785301 -0.669000
						CHANNELS 3 Xrotation Yrotation Zrotation
						JOINT RightShoulder_split
						{
							OFFSET -6.292450 5.785301 -0.669000
							CHANNELS 3 Xrotation Yrotation Zrotation
							JOINT RightArm
							{
								OFFSET -13.907140 -6.093903 1.965100
								CHANNELS 3 Xrotation Yrotation Zrotation
								JOINT RightForeArm
								{
									OFFSET -34.140198 0.000000 0.000000
									CHANNELS 3 Xrotation Yrotation Zrotation
									JOINT RightHand
									{
										OFFSET -40.960209 0.000000 0.000000
										CHANNELS 3 Xrotation Yrotation Zrotation
										JOINT RightHandThumb1
										{
											OFFSET -10.007050 -7.170456 9.573117
											CHANNELS 3 Xrotation Yrotation Zrotation
											JOINT RightHandThumb2
											{
												OFFSET -1.835007 -1.059448 1.059443
												CHANNELS 3 Xrotation Yrotation Zrotation
												JOINT RightHandThumb3
												{
													OFFSET -2.112267 -1.219513 1.219518
													CHANNELS 3 Xrotation Yrotation Zrotation
													JOINT RightHandThumb4
													{
														OFFSET -4.843834 -2.796585 2.796590
														CHANNELS 3 Xrotation Yrotation Zrotation
														End Site
														{
															OFFSET 0.000000 0.000000 0.000000
														}
													}
												}
											}
										}
										JOINT RightHandIndex1
										{
											OFFSET -18.389870 -0.922424 4.596786
											CHANNELS 3 Xrotation Yrotation Zrotation
											JOINT RightHandIndex2
											{
												OFFSET -4.711273 0.000000 0.000000
												CHANNELS 3 Xrotation Yrotation Zrotation
												JOINT RightHandIndex3
												{
													OFFSET -2.886131 0.000000 0.000000
													CHANNELS 3 Xrotation Yrotation Zrotation
													JOINT RightHandIndex4
													{
														OFFSET -6.145920 0.000000 0.000000
														CHANNELS 3 Xrotation Yrotation Zrotation
														End Site
														{
															OFFSET 0.000000 0.000000 0.000000
														}
													}
												}
											}
										}
										JOINT RightHandMiddle1
										{
											OFFSET -18.013008 0.000000 0.000000
											CHANNELS 3 Xrotation Yrotation Zrotation
											JOINT RightHandMiddle2
											{
												OFFSET -4.946693 0.000000 0.000000
												CHANNELS 3 Xrotation Yrotation Zrotation
												JOINT RightHandMiddle3
												{
													OFFSET -3.342232 0.000000 0.000000
													CHANNELS 3 Xrotation Yrotation Zrotation
													JOINT RightHandMiddle4
													{
														OFFSET -4.461754 0.000000 0.000000
														CHANNELS 3 Xrotation Yrotation Zrotation
														End Site
														{
															OFFSET 0.000000 0.000000 0.000000
														}
													}
												}
											}
										}
										JOINT RightHandRing1
										{
											OFFSET -15.849876 -0.102936 -4.126237
											CHANNELS 3 Xrotation Yrotation Zrotation
											JOINT RightHandRing2
											{
												OFFSET -3.527054 0.000000 0.000000
												CHANNELS 3 Xrotation Yrotation Zrotation
												JOINT RightHandRing3
												{
													OFFSET -2.961098 0.000000 0.000000
													CHANNELS 3 Xrotation Yrotation Zrotation
													JOINT RightHandRing4
													{
														OFFSET -4.927200 0.000000 0.000000
														CHANNELS 3 Xrotation Yrotation Zrotation
														End Site
														{
															OFFSET 0.000000 0.000000 0.000000
														}
													}
												}
											}
										}
										JOINT RightHandPinky1
										{
											OFFSET -12.791786 -0.832077 -6.799222
											CHANNELS 3 Xrotation Yrotation Zrotation
											JOINT RightHandPinky2
											{
												OFFSET -3.327133 0.000000 0.000000
												CHANNELS 3 Xrotation Yrotation Zrotation
												JOINT RightHandPinky3
												{
													OFFSET -3.014900 0.000000 0.000000
													CHANNELS 3 Xrotation Yrotation Zrotation
													JOINT RightHandPinky4
													{
														OFFSET -5.847786 0.000000 0.000000
														CHANNELS 3 Xrotation Yrotation Zrotation
														End Site
														{
															OFFSET 0.000000 0.000000 0.000000
														}
													}
												}
											}
										}
									}
								}
							}
						}
					}
				}
			}
		}
	}
	JOINT LeftUpLeg
	{
		OFFSET 13.026900 -6.336304 -1.092800
		CHANNELS 3 Xrotation Yrotation Zrotation
		JOINT LeftLeg
		{
			OFFSET 0.524474 -46.096886 9.782700
			CHANNELS 3 Xrotation Yrotation Zrotation
			JOINT LeftFoot
			{
				OFFSET -0.524474 -53.427422 -12.948200
				CHANNELS 3 Xrotation Yrotation Zrotation
				JOINT LeftToeBase
				{
					OFFSET 0.192200 -14.009700 16.364100
					CHANNELS 3 Xrotation Yrotation Zrotation
					JOINT LeftToe_End
					{
						OFFSET -1.784700 -0.561700 9.474800
						CHANNELS 3 Xrotation Yrotation Zrotation
						End Site
						{
							OFFSET 0.000000 0.000000 0.000000
						}
					}
				}
			}
		}
	}
	JOINT RightUpLeg
	{
		OFFSET -12.883000 -6.336304 -1.092800
		CHANNELS 3 Xrotation Yrotation Zrotation
		JOINT RightLeg
		{
			OFFSET -0.524587 -46.096825 9.782800
			CHANNELS 3 Xrotation Yrotation Zrotation
			JOINT RightFoot
			{
				OFFSET 0.524587 -53.427383 -12.948300
				CHANNELS 3 Xrotation Yrotation Zrotation
				JOINT RightToeBase
				{
					OFFSET -0.192200 -14.009700 16.364100
					CHANNELS 3 Xrotation Yrotation Zrotation
					JOINT RightToe_End
					{
						OFFSET 1.784700 -0.561700 9.474800
						CHANNELS 3 Xrotation Yrotation Zrotation
						End Site
						{
							OFFSET 0.000000 0.000000 0.000000
						}
					}
				}
			}
		}
	}
}
MOTION
Frames: 4
Frame Time: 0.016667
-1.111082 101.148094 0.434391 3.032230 -58.328497 6.707846 11.191913 0.157694 -2.923545 8.434584 0.027705 -5.592321 0.000000 0.000000 0.000000 8.457057 0.027855 -5.591867 -21.555642 25.063376 12.062565 -0.294042 25.465759 -3.208975 0.000000 -0.000000 -0.000001 -6.221670 -11.503850 -4.023830 0.000000 0.000000 0.000000 -23.062175 9.568549 -36.639607 0.046114 -43.169121 -0.011155 22.743748 -5.685859 15.979287 -1.064238 -7.954923 8.490077 2.373409 19.986097 -2.038336 0.808199 1.237786 2.631751 -0.000000 0.000000 0.000001 13.340876 -1.006680 10.682260 -0.167584 0.303385 -31.105621 -0.143402 0.303640 -32.256275 -0.000000 0.000000 -0.000001 8.495446 -0.329584 -0.915304 0.231514 0.661201 -29.901878 0.444099 0.213436 -44.357011 -0.000000 0.000001 0.000000 6.111746 3.150895 -16.210969 0.047075 0.322397 -30.125465 0.408806 0.818959 -42.140662 0.000000 -0.000001 -0.000001 -5.636016 7.709849 -13.878611 0.224373 0.276602 -46.588369 0.261240 0.249382 -46.286836 0.000001 -0.000001 0.000002 -5.488241 10.658267 2.466538 0.000000 0.000000 0.000000 -41.473800 -26.755596 30.079071 24.955437 111.862987 -23.308447 -8.702508 12.423031 -9.801974 0.265015 10.061111 -10.888491 1.383810 -17.412881 3.016288 3.342353 -13.253730 -8.262746 -0.000001 0.000000 0.000001 19.443604 11.174437 -13.340209 -0.118647 -0.322721 18.035599 -0.089900 -0.286614 23.256589 -0.000000 -0.000001 -0.000001 4.320477 2.436945 -4.811734 0.349142 -0.461255 26.890332 0.467468 0.154069 39.044845 -0.000000 0.000001 0.000001 -7.005636 -10.695135 5.719834 0.111853 -0.089211 26.155894 0.451299 -0.473548 33.265050 0.000002 -0.000001 -0.000000 -19.433517 -20.238202 5.987870 0.223765 -0.085820 36.844547 0.260795 -0.047502 36.471708 -0.000000 0.000001 -0.000000 -36.059089 9.362594 25.457770 41.736738 -7.562043 -9.727455 -7.261665 -2.456344 -9.620543 -0.327614 1.238433 0.837254 0.000000 0.000002 0.000000 -33.213820 -7.744968 -26.045036 46.183875 2.600946 -7.371292 -16.831823 2.997432 21.175178 -0.322766 -0.997424 -0.837127 0.000000 0.000002 0.000000 
-1.131848 101.138863 0.502111 3.097940 -58.371671 6.730664 11.114765 0.176264 -2.889708 8.281116 0.065578 -5.543484 0.000000 0.000000 0.000000 8.303559 0.065723 -5.543007 -21.313518 24.821473 11.931887 -0.501502 25.223303 -3.073467 -0.000000 -0.000000 -0.000001 -5.888015 -11.348870 -4.111615 0.000000 0.000000 0.000000 -23.088836 9.805525 -36.732088 -0.223611 -43.320345 -0.178070 22.774841 -5.786714 15.762772 -1.013348 -7.979058 8.385266 2.373241 19.985726 -2.038482 0.808363 1.238001 2.631758 -0.000000 -0.000000 0.000000 13.392776 -0.857333 10.369731 -0.168843 0.304164 -31.279148 -0.145024 0.304770 -32.541675 -0.000003 -0.000000 0.000000 8.501712 -0.177932 -1.121777 0.233297 0.661435 -30.053652 0.447219 0.213049 -44.579248 -0.000001 -0.000000 0.000000 6.115917 3.344593 -16.345865 0.048437 0.323111 -30.253046 0.410733 0.818824 -42.310747 -0.000001 -0.000000 -0.000001 -5.669039 7.954099 -13.849584 0.224920 0.276672 -46.648761 0.262215 0.249479 -46.389777 0.000002 0.000000 -0.000002 -5.146254 10.690680 2.467580 0.000000 0.000000 0.000000 -41.573746 -27.076229 29.890059 27.927855 112.638323 -26.280054 -8.524174 12.683894 -9.630383 0.058330 10.763345 -10.139017 1.383862 -17.413057 3.016222 3.360129 -13.347160 -8.304065 -0.000001 -0.000003 0.000001 19.385107 11.008845 -11.664735 -0.125434 -0.326323 19.069069 -0.096747 -0.289710 24.356386 -0.000000 0.000001 -0.000001 4.347776 1.811593 -3.663100 0.356061 -0.461064 27.691723 0.473714 0.156239 39.904598 -0.000000 -0.000001 0.000001 -6.837591 -11.512228 6.465784 0.115963 -0.091569 26.770266 0.454470 -0.472541 33.906114 -0.000000 -0.000000 -0.000001 -19.227286 -20.531313 6.567966 0.226172 -0.086346 37.287321 0.263106 -0.047662 36.910329 -0.000000 -0.000000 -0.000000 -36.124584 9.264457 25.459928 41.895711 -7.492864 -9.685470 -7.223618 -2.445699 -9.710991 -0.358549 1.237988 0.774029 -0.000000 0.000000 0.000000 -33.195423 -7.613959 -25.946579 46.201578 2.505367 -7.439504 -16.737503 2.975501 21.328504 -0.374877 -0.996916 -0.814315 0.000000 0.000000 -0.000000 
-1.152400 101.119942 0.569491 3.163720 -58.414797 6.753946 11.105579 0.191735 -2.866292 8.263421 0.094347 -5.514621 0.000000 0.000000 0.000000 8.285899 0.094473 -5.514149 -21.429169 24.538189 11.838499 -0.484138 24.969447 -3.032918 0.000000 -0.000000 0.000001 -5.880231 -11.203445 -4.136704 0.000000 0.000000 0.000000 -23.070897 10.188988 -36.902542 -0.778820 -43.644028 -0.618978 22.885925 -5.874754 15.640297 -0.936061 -7.901283 8.281057 2.381449 20.006186 -2.031156 0.808440 1.238126 2.631728 0.000000 0.000000 -0.000000 13.380402 -0.903470 10.415431 -0.168410 0.303861 -31.216280 -0.144575 0.304490 -32.466573 0.000001 0.000001 0.000001 8.500995 -0.157137 -1.020049 0.232483 0.661347 -29.983554 0.445406 0.213262 -44.452237 0.000003 0.000001 -0.000001 6.103012 3.435148 -16.138192 0.047762 0.322747 -30.188856 0.408956 0.819057 -42.144477 0.000001 -0.000001 -0.000001 -5.678008 8.064662 -13.509531 0.223990 0.276511 -46.546168 0.259998 0.249270 -46.154433 0.000000 -0.000001 -0.000001 -5.152139 10.691567 2.515987 0.000000 0.000000 0.000000 -41.675335 -27.395465 29.700367 30.754955 113.473799 -29.096367 -7.964726 12.641094 -9.574789 -0.272426 11.449464 -9.779563 1.392580 -17.434082 3.008420 3.351696 -13.302439 -8.284243 -0.000001 -0.000000 -0.000000 19.283204 11.017643 -10.724539 -0.128896 -0.328175 19.592155 -0.100150 -0.291198 24.899350 0.000001 0.000000 0.000001 4.335207 1.528087 -2.596399 0.361458 -0.460794 28.315637 0.478262 0.157909 40.543467 -0.000002 -0.000003 0.000000 -6.574477 -12.132970 7.760418 0.121338 -0.094762 27.577526 0.458395 -0.470886 34.734565 0.000002 -0.000000 0.000001 -18.816292 -22.102987 7.642810 0.231391 -0.087304 38.248875 0.268347 -0.048115 37.897134 0.000000 0.000000 -0.000003 -36.180642 9.173611 25.452475 42.049571 -7.411813 -9.642125 -7.224960 -2.439136 -9.743933 -0.389460 1.237574 0.710788 0.000000 -0.000001 -0.000000 -33.169226 -7.490165 -25.843192 46.214286 2.394208 -7.508071 -16.679498 2.957083 21.434672 -0.427069 -0.995819 -0.791654 -0.000000 0.000001 0.000000 
-1.171798 101.067787 0.646049 3.271565 -58.452335 6.821265 11.091922 0.211334 -2.840380 8.236895 0.130305 -5.482832 0.000000 0.000000 0.000000 8.259364 0.130455 -5.482367 -21.566059 24.146875 11.698333 -0.461433 24.621503 -2.974629 0.000000 0.000000 -0.000001 -5.870536 -11.061417 -4.171692 0.000000 0.000000 0.000000 -22.987241 10.659099 -37.048432 -1.551479 -44.072106 -1.371600 23.004902 -5.957688 15.638855 -0.867465 -7.784699 8.163936 2.371677 19.981930 -2.039808 0.808369 1.238158 2.631912 0.000000 0.000001 -0.000003 13.356448 -0.993983 10.520301 -0.167650 0.303516 -31.113185 -0.143839 0.303743 -32.322603 -0.000001 0.000000 -0.000003 8.488158 -0.166986 -0.852465 0.231249 0.661073 -29.882931 0.442626 0.213667 -44.247366 0.000000 0.000000 -0.000000 6.084684 3.499130 -15.846327 0.046793 0.322344 -30.097420 0.406102 0.819131 -41.895831 -0.000000 0.000000 0.000001 -5.685247 8.137454 -13.084717 0.222778 0.276395 -46.402403 0.257135 0.249082 -45.829736 0.000001 0.000001 0.000003 -5.178392 10.652658 2.668578 0.000000 0.000000 0.000000 -41.781988 -27.790445 29.400768 35.112657 114.823430 -33.451302 -7.092252 12.745464 -9.489335 -0.610327 12.109773 -9.454125 1.382286 -17.409266 3.017619 3.337032 -13.225086 -8.249952 0.000000 -0.000001 0.000001 19.197046 10.951354 -9.698050 -0.132384 -0.330091 20.134786 -0.103536 -0.293017 25.460421 -0.000000 -0.000001 -0.000001 4.354853 1.175973 -1.362043 0.367474 -0.460515 29.018984 0.483444 0.159805 41.255131 -0.000001 -0.000000 0.000000 -6.208858 -12.853170 9.348218 0.127945 -0.098448 28.547262 0.462987 -0.468822 35.726537 -0.000001 -0.000001 -0.000001 -18.118842 -23.348822 9.489320 0.237872 -0.088344 39.442454 0.274696 -0.048367 39.126308 -0.000002 0.000001 0.000000 -36.292903 9.041951 25.427609 42.281193 -7.313667 -9.586546 -7.235622 -2.426900 -9.787273 -0.425373 1.237078 0.637703 -0.000000 0.000001 0.000000 -33.191721 -7.312698 -25.745619 46.294606 2.263353 -7.587375 -16.615632 2.931463 21.562386 -0.498205 -0.994853 -0.755834 0.000000 -0.000000 0.000000 
